<?xml version="1.0" standalone="no"?><!DOCTYPE svg PUBLIC "-//W3C//DTD SVG 1.1//EN" "http://www.w3.org/Graphics/SVG/1.1/DTD/svg11.dtd"><svg t="1678238526185" class="icon" viewBox="0 0 1024 1024" version="1.1" xmlns="http://www.w3.org/2000/svg" p-id="2199" xmlns:xlink="http://www.w3.org/1999/xlink" width="200" height="200"><path d="M280.105 299.632c0-282.064 462.195-293.984 462.195 11.558 0 293.97-462.195 312.538-462.195-11.558v0zM458.042-0.793h74.159c208.459 23.779 403.015 240.885 226.774 501.977-22.291 33.026-23.989 42.258-62.9 52.662 31.962 43.61 300.423 122.229 300.423 462.18h-92.429c0-517.426-785.723-523.429-785.723 0h-92.446c0-114.783 22.083-199.479 90.524-290.786 36.749-49.045 100.13-102.486 154.834-134.027 43.055-24.816 28.764-1.471 55.065-37.366-79.189-21.151-164.114-196.314-108.974-351.631 45.922-129.373 139.943-191.225 240.69-203.008v0z" fill="#231915" p-id="2200"></path></svg>