<?xml version="1.0" standalone="no"?><!DOCTYPE svg PUBLIC "-//W3C//DTD SVG 1.1//EN" "http://www.w3.org/Graphics/SVG/1.1/DTD/svg11.dtd"><svg t="1678196678243" class="icon" viewBox="0 0 1024 1024" version="1.1" xmlns="http://www.w3.org/2000/svg" p-id="1677" xmlns:xlink="http://www.w3.org/1999/xlink" width="200" height="200"><path d="M180.672 203.328a16 16 0 0 0 0 22.624l320 320a16 16 0 0 0 22.656 0l320-320a16 16 0 0 0 0-22.624l-22.656-22.656a16 16 0 0 0-22.624 0L512 466.752l-286.08-286.08a16 16 0 0 0-22.592 0l-22.656 22.656z m0 320a16 16 0 0 0 0 22.624l320 320a16 16 0 0 0 22.656 0l320-320a16 16 0 0 0 0-22.624l-22.656-22.656a16 16 0 0 0-22.624 0L512 786.752l-286.08-286.08a16 16 0 0 0-22.592 0l-22.656 22.656z" fill="#000000" p-id="1678"></path></svg>