<?xml version="1.0" standalone="no"?><!DOCTYPE svg PUBLIC "-//W3C//DTD SVG 1.1//EN" "http://www.w3.org/Graphics/SVG/1.1/DTD/svg11.dtd"><svg t="1678196693292" class="icon" viewBox="0 0 1024 1024" version="1.1" xmlns="http://www.w3.org/2000/svg" p-id="1967" xmlns:xlink="http://www.w3.org/1999/xlink" width="200" height="200"><path d="M523.328 158.08a16 16 0 0 0-22.656 0l-320 320a16 16 0 0 0 0 22.624l22.656 22.624a16 16 0 0 0 22.624 0L512 237.248l286.08 286.08a16 16 0 0 0 22.592 0l22.656-22.624a16 16 0 0 0 0-22.656l-320-320z m320 640l-320-320a16 16 0 0 0-22.656 0l-320 320a16 16 0 0 0 0 22.592l22.656 22.656a16 16 0 0 0 22.624 0L512 557.248l286.08 286.08a16 16 0 0 0 22.592 0l22.656-22.624a16 16 0 0 0 0-22.656z" fill="#000000" p-id="1968"></path></svg>