<?xml version="1.0" standalone="no"?><!DOCTYPE svg PUBLIC "-//W3C//DTD SVG 1.1//EN" "http://www.w3.org/Graphics/SVG/1.1/DTD/svg11.dtd"><svg t="1678196686262" class="icon" viewBox="0 0 1024 1024" version="1.1" xmlns="http://www.w3.org/2000/svg" p-id="1822" xmlns:xlink="http://www.w3.org/1999/xlink" width="200" height="200"><path d="M500.672 180.672a16 16 0 0 0-22.624 0l-320 320a16 16 0 0 0 0 22.656l320 320a16 16 0 0 0 22.624 0l22.656-22.656a16 16 0 0 0 0-22.624L237.248 512l286.08-286.08a16 16 0 0 0 0-22.592l-22.624-22.656z m320 0a16 16 0 0 0-22.624 0l-320 320a16 16 0 0 0 0 22.656l320 320a16 16 0 0 0 22.624 0l22.656-22.656a16 16 0 0 0 0-22.624L557.248 512l286.08-286.08a16 16 0 0 0 0-22.592l-22.624-22.656z" fill="#000000" p-id="1823"></path></svg>