<?xml version="1.0" standalone="no"?><!DOCTYPE svg PUBLIC "-//W3C//DTD SVG 1.1//EN" "http://www.w3.org/Graphics/SVG/1.1/DTD/svg11.dtd"><svg t="1678196698664" class="icon" viewBox="0 0 1024 1024" version="1.1" xmlns="http://www.w3.org/2000/svg" p-id="2110" xmlns:xlink="http://www.w3.org/1999/xlink" width="200" height="200"><path d="M225.92 180.672a16 16 0 0 0-22.592 0l-22.656 22.656a16 16 0 0 0 0 22.624L466.752 512l-286.08 286.08a16 16 0 0 0 0 22.592l22.656 22.656a16 16 0 0 0 22.624 0l320-320a16 16 0 0 0 0-22.656l-320-320z m320 0a16 16 0 0 0-22.592 0l-22.656 22.656a16 16 0 0 0 0 22.624L786.752 512l-286.08 286.08a16 16 0 0 0 0 22.592l22.656 22.656a16 16 0 0 0 22.624 0l320-320a16 16 0 0 0 0-22.656l-320-320z" fill="#000000" p-id="2111"></path></svg>